<?xml version="1.0" encoding="UTF-8" standalone="no"?>
<svg
   xmlns:dc="http://purl.org/dc/elements/1.1/"
   xmlns:cc="http://creativecommons.org/ns#"
   xmlns:rdf="http://www.w3.org/1999/02/22-rdf-syntax-ns#"
   xmlns:svg="http://www.w3.org/2000/svg"
   xmlns="http://www.w3.org/2000/svg"
   xmlns:sodipodi="http://sodipodi.sourceforge.net/DTD/sodipodi-0.dtd"
   xmlns:inkscape="http://www.inkscape.org/namespaces/inkscape"
   width="210mm"
   height="297mm"
   viewBox="0 0 210 297"
   version="1.1"
   id="svg8"
   sodipodi:docname="box, bjartur.svg"
   inkscape:version="1.0.1 (3bc2e813f5, 2020-09-07)">
  <defs
     id="defs2">
    <inkscape:path-effect
       effect="powerstroke"
       id="path-effect1472"
       is_visible="true"
       lpeversion="1"
       offset_points="3,0.12945605"
       sort_points="true"
       interpolator_type="CubicBezierJohan"
       interpolator_beta="0.2"
       start_linecap_type="zerowidth"
       linejoin_type="extrp_arc"
       miter_limit="4"
       scale_width="1"
       end_linecap_type="zerowidth" />
    <inkscape:path-effect
       effect="powerstroke"
       id="path-effect1426"
       is_visible="true"
       lpeversion="1"
       offset_points="3,0.12945605"
       sort_points="true"
       interpolator_type="CubicBezierJohan"
       interpolator_beta="0.2"
       start_linecap_type="zerowidth"
       linejoin_type="extrp_arc"
       miter_limit="4"
       scale_width="1"
       end_linecap_type="zerowidth" />
    <inkscape:path-effect
       effect="powerstroke"
       id="path-effect849"
       is_visible="true"
       lpeversion="1"
       offset_points="3,0.12945605"
       sort_points="true"
       interpolator_type="CubicBezierJohan"
       interpolator_beta="0.2"
       start_linecap_type="zerowidth"
       linejoin_type="extrp_arc"
       miter_limit="4"
       scale_width="1"
       end_linecap_type="zerowidth" />
    <inkscape:path-effect
       effect="powerstroke"
       id="path-effect841"
       is_visible="true"
       lpeversion="1"
       offset_points="1,0.1428422"
       sort_points="true"
       interpolator_type="CubicBezierJohan"
       interpolator_beta="0.2"
       start_linecap_type="zerowidth"
       linejoin_type="extrp_arc"
       miter_limit="4"
       scale_width="1"
       end_linecap_type="zerowidth" />
    <inkscape:path-effect
       effect="skeletal"
       id="path-effect837"
       is_visible="true"
       lpeversion="1"
       pattern="M 0,5 C 0,2.24 2.24,0 5,0 7.76,0 10,2.24 10,5 10,7.76 7.76,10 5,10 2.24,10 0,7.76 0,5 Z"
       copytype="single_stretched"
       prop_scale="1"
       scale_y_rel="false"
       spacing="0"
       normal_offset="0"
       tang_offset="0"
       prop_units="false"
       vertical_pattern="false"
       hide_knot="false"
       fuse_tolerance="0" />
  </defs>
  <sodipodi:namedview
     id="base"
     pagecolor="#ffffff"
     bordercolor="#666666"
     borderopacity="1.0"
     inkscape:pageopacity="0.0"
     inkscape:pageshadow="2"
     inkscape:zoom="0.35145678"
     inkscape:cx="630.90289"
     inkscape:cy="271.3481"
     inkscape:document-units="mm"
     inkscape:current-layer="layer1"
     inkscape:document-rotation="0"
     showgrid="false"
     showguides="true"
     inkscape:guide-bbox="true"
     inkscape:window-width="1920"
     inkscape:window-height="1001"
     inkscape:window-x="-9"
     inkscape:window-y="-9"
     inkscape:window-maximized="1"
     inkscape:snap-grids="true"
     inkscape:snap-to-guides="true"
     inkscape:snap-global="false" />
  <metadata
     id="metadata5">
    <rdf:RDF>
      <cc:Work
         rdf:about="">
        <dc:format>image/svg+xml</dc:format>
        <dc:type
           rdf:resource="http://purl.org/dc/dcmitype/StillImage" />
        <dc:title />
      </cc:Work>
    </rdf:RDF>
  </metadata>
  <g
     inkscape:label="Layer 1"
     inkscape:groupmode="layer"
     id="layer1">
    <g
       id="g1422">
      <g
         id="g1477"
         style="stroke:none;stroke-opacity:1;fill:#000000;fill-opacity:1" />
    </g>
    <g
       id="panel6697"
       transform="translate(-112.96206,-22.709905)"
       style="stroke-width:0.1;stroke-miterlimit:4;stroke-dasharray:none">
      <path
         style="fill:none;stroke:#000000;stroke-width:0.1;stroke-miterlimit:4;stroke-dasharray:none"
         d="m 58.2,193.5 h 17.605 v -1.4 l -0.1,-0.1 v -0.1 l 0.1,-0.1 v -1.4 h 15.19 v 1.4 l 0.1,0.1 v 0.1 l -0.1,0.1 v 1.4 h 17.51 v -1.4 l -0.1,-0.1 v -0.1 l 0.1,-0.1 v -1.4 h 15.19 v 1.4 l 0.1,0.1 v 0.1 l -0.1,0.1 v 1.4 h 17.51 v -1.4 l -0.1,-0.1 v -0.1 l 0.1,-0.1 v -1.4 h 15.19 v 1.4 l 0.1,0.1 v 0.1 l -0.1,0.1 v 1.4 h 17.51 v -1.4 l -0.1,-0.1 v -0.1 l 0.1,-0.1 v -1.4 h 15.19 v 1.4 l 0.1,0.1 v 0.1 l -0.1,0.1 v 1.4 h 17.51 v -1.4 l -0.1,-0.1 v -0.1 l 0.1,-0.1 v -1.4 h 15.19 v 1.4 l 0.1,0.1 v 0.1 l -0.1,0.1 v 1.4 H 239.4"
         id="path1210" />
      <path
         style="fill:none;stroke:#000000;stroke-width:0.1;stroke-miterlimit:4;stroke-dasharray:none"
         d="m 147.25,211.095 v 14.81 h 3.1 v -14.81 h -3.1"
         id="path1212" />
      <path
         style="fill:none;stroke:#000000;stroke-width:0.1;stroke-miterlimit:4;stroke-dasharray:none"
         d="m 239.4,193.5 v 17.595 H 238 l -0.1,0.1 h -0.1 l -0.1,-0.1 h -1.4 v 14.81 h 1.4 l 0.1,-0.1 h 0.1 l 0.1,0.1 h 1.4 V 243.5"
         id="path1214" />
      <path
         style="fill:none;stroke:#000000;stroke-width:0.1;stroke-miterlimit:4;stroke-dasharray:none"
         d="m 239.4,243.5 h -17.605 v 1.4 l 0.1,0.1 v 0.1 l -0.1,0.1 v 1.4 h -15.19 v -1.4 l -0.1,-0.1 V 245 l 0.1,-0.1 v -1.4 h -17.51 v 1.4 l 0.1,0.1 v 0.1 l -0.1,0.1 v 1.4 h -15.19 v -1.4 l -0.1,-0.1 V 245 l 0.1,-0.1 v -1.4 h -17.51 v 1.4 l 0.1,0.1 v 0.1 l -0.1,0.1 v 1.4 h -15.19 v -1.4 l -0.1,-0.1 V 245 l 0.1,-0.1 v -1.4 h -17.51 v 1.4 l 0.1,0.1 v 0.1 l -0.1,0.1 v 1.4 h -15.19 v -1.4 l -0.1,-0.1 V 245 l 0.1,-0.1 v -1.4 h -17.51 v 1.4 l 0.1,0.1 v 0.1 l -0.1,0.1 v 1.4 h -15.19 v -1.4 l -0.1,-0.1 V 245 l 0.1,-0.1 v -1.4 H 58.2"
         id="path1216" />
      <path
         style="fill:none;stroke:#000000;stroke-width:0.1;stroke-miterlimit:4;stroke-dasharray:none"
         d="m 58.2,243.5 v -17.595 h 1.4 l 0.1,-0.1 h 0.1 l 0.1,0.1 h 1.4 v -14.81 h -1.4 l -0.1,0.1 h -0.1 l -0.1,-0.1 H 58.2 V 193.5"
         id="path1218" />
    </g>
    <g
       id="g1413"
       transform="translate(-466.74777,7.5281898)"
       style="stroke-width:0.1;stroke-miterlimit:4;stroke-dasharray:none">
      <path
         style="fill:none;stroke:#000000;stroke-width:0.1;stroke-miterlimit:4;stroke-dasharray:none"
         d="m 422.20671,236.49808 c 181.2,0 0,0 181.2,0"
         id="path1221"
         sodipodi:nodetypes="cc" />
      <path
         style="fill:none;stroke:#000000;stroke-width:0.1;stroke-miterlimit:4;stroke-dasharray:none"
         d="m 603.40671,236.49808 v 17.595 h -1.4 l -0.1,0.1 h -0.1 l -0.1,-0.1 h -1.4 v 14.81 h 1.4 l 0.1,-0.1 h 0.1 l 0.1,0.1 h 1.4 v 17.595"
         id="path1225" />
      <path
         style="fill:none;stroke:#000000;stroke-width:0.1;stroke-miterlimit:4;stroke-dasharray:none"
         d="m 603.40671,286.49808 h -17.605 v 1.4 l 0.1,0.1 v 0.1 l -0.1,0.1 v 1.4 h -15.19 v -1.4 l -0.1,-0.1 v -0.1 l 0.1,-0.1 v -1.4 h -17.51 v 1.4 l 0.1,0.1 v 0.1 l -0.1,0.1 v 1.4 h -15.19 v -1.4 l -0.1,-0.1 v -0.1 l 0.1,-0.1 v -1.4 h -17.51 v 1.4 l 0.1,0.1 v 0.1 l -0.1,0.1 v 1.4 h -15.19 v -1.4 l -0.1,-0.1 v -0.1 l 0.1,-0.1 v -1.4 h -17.51 v 1.4 l 0.1,0.1 v 0.1 l -0.1,0.1 v 1.4 h -15.19 v -1.4 l -0.1,-0.1 v -0.1 l 0.1,-0.1 v -1.4 h -17.51 v 1.4 l 0.1,0.1 v 0.1 l -0.1,0.1 v 1.4 h -15.19 v -1.4 l -0.1,-0.1 v -0.1 l 0.1,-0.1 v -1.4 h -17.605"
         id="path1227" />
      <path
         style="fill:none;stroke:#000000;stroke-width:0.1;stroke-miterlimit:4;stroke-dasharray:none"
         d="m 422.20671,286.49808 v -17.595 h 1.4 l 0.1,-0.1 h 0.1 l 0.1,0.1 h 1.4 v -14.81 h -1.4 l -0.1,0.1 h -0.1 l -0.1,-0.1 h -1.4 v -17.595"
         id="path1229" />
    </g>
    <g
       id="panel2942"
       transform="translate(205.61427,-43.990445)"
       style="stroke-width:0.1;stroke-miterlimit:4;stroke-dasharray:none">
      <path
         style="fill:none;stroke:#000000;stroke-width:0.1;stroke-miterlimit:4;stroke-dasharray:none"
         d="m 4.1,125.35 h 17.405 v -3.1 H 4.1 v 3.1"
         id="path1232" />
      <path
         style="fill:none;stroke:#000000;stroke-width:0.1;stroke-miterlimit:4;stroke-dasharray:none"
         d="M 36.695,125.35 H 54.1 v -3.1 H 36.695 v 3.1"
         id="path1234" />
      <path
         style="fill:none;stroke:#000000;stroke-width:0.1;stroke-miterlimit:4;stroke-dasharray:none"
         d="m 4.1,61.3 h 17.405 v -1.4 l -0.1,-0.1 v -0.1 l 0.1,-0.1 v -1.4 h 15.19 v 1.4 l 0.1,0.1 v 0.1 l -0.1,0.1 v 1.4 H 54.1"
         id="path1236" />
      <path
         style="fill:none;stroke:#000000;stroke-width:0.1;stroke-miterlimit:4;stroke-dasharray:none"
         d="m 54.1,61.3 v 18.355 h 1.4 l 0.1,-0.1 h 0.1 l 0.1,0.1 h 1.4 v 15.19 h -1.4 l -0.1,0.1 h -0.1 l -0.1,-0.1 h -1.4 v 21.36 h 1.4 l 0.1,-0.1 h 0.1 l 0.1,0.1 h 1.4 v 15.19 h -1.4 l -0.1,0.1 h -0.1 l -0.1,-0.1 h -1.4 v 21.36 h 1.4 l 0.1,-0.1 h 0.1 l 0.1,0.1 h 1.4 v 15.19 h -1.4 l -0.1,0.1 h -0.1 l -0.1,-0.1 H 54.1 V 186.3"
         id="path1238" />
      <path
         style="fill:none;stroke:#000000;stroke-width:0.1;stroke-miterlimit:4;stroke-dasharray:none"
         d="M 54.1,186.3 H 36.695 v 1.4 l 0.1,0.1 v 0.1 l -0.1,0.1 v 1.4 H 21.505 V 188 l -0.1,-0.1 v -0.1 l 0.1,-0.1 v -1.4 H 4.1"
         id="path1240" />
      <path
         style="fill:none;stroke:#000000;stroke-width:0.1;stroke-miterlimit:4;stroke-dasharray:none"
         d="M 4.1,186.3 V 167.945 H 2.7 l -0.1,0.1 H 2.5 l -0.1,-0.1 H 1 v -15.19 h 1.4 l 0.1,-0.1 h 0.1 l 0.1,0.1 h 1.4 v -21.36 H 2.7 l -0.1,0.1 H 2.5 l -0.1,-0.1 H 1 v -15.19 h 1.4 l 0.1,-0.1 h 0.1 l 0.1,0.1 H 4.1 V 94.845 H 2.7 l -0.1,0.1 H 2.5 l -0.1,-0.1 H 1 v -15.19 h 1.4 l 0.1,-0.1 h 0.1 l 0.1,0.1 H 4.1 V 61.3"
         id="path1242" />
    </g>
    <g
       id="panel6690"
       transform="translate(202.96049,-251.89539)"
       style="stroke-width:0.1;stroke-miterlimit:4;stroke-dasharray:none">
      <path
         style="fill:none;stroke:#000000;stroke-width:0.1;stroke-miterlimit:4;stroke-dasharray:none"
         d="m 69.640426,333.14377 h 17.405 v -1.4 l -0.1,-0.1 v -0.1 l 0.1,-0.1 v -1.4 h 15.190004 v 1.4 l 0.1,0.1 v 0.1 l -0.1,0.1 v 1.4 l 20.505,-0.0137"
         id="path1247"
         sodipodi:nodetypes="cccccccccccccc" />
      <path
         style="fill:none;stroke:#000000;stroke-width:0.1;stroke-miterlimit:4;stroke-dasharray:none"
         d="m 122.74043,333.13011 v 7.60225 h -1.4 l -0.1,0.1 h -0.1 l -0.1,-0.1 h -1.4 v 21.36 h 1.4 l 0.1,-0.1 h 0.1 l 0.1,0.1 h 1.4 v 15.19 h -1.4 l -0.1,0.1 h -0.1 l -0.1,-0.1 h -1.4 v 18.355"
         id="path1249"
         sodipodi:nodetypes="cccccccccccccccccccc" />
      <path
         style="fill:none;stroke:#000000;stroke-width:0.1;stroke-miterlimit:4;stroke-dasharray:none"
         d="m 119.64043,395.63736 h -17.405 v 1.4 l 0.1,0.1 v 0.1 l -0.1,0.1 v 1.4 H 87.045426 v -1.4 l -0.1,-0.1 v -0.1 l 0.1,-0.1 v -1.4 h -17.405"
         id="path1251" />
      <path
         style="fill:none;stroke:#000000;stroke-width:0.1;stroke-miterlimit:4;stroke-dasharray:none"
         d="M 69.640426,395.63736 V 333.14377"
         id="path1253"
         sodipodi:nodetypes="cc" />
    </g>
    <g
       id="panel7287"
       transform="translate(-112.96206,-22.709905)"
       style="stroke-width:0.1;stroke-miterlimit:4;stroke-dasharray:none">
      <path
         style="fill:none;stroke:#000000;stroke-width:0.1;stroke-miterlimit:4;stroke-dasharray:none"
         d="m 75.995,125.35 h 14.81 v -3.1 h -14.81 v 3.1"
         id="path1256" />
      <path
         style="fill:none;stroke:#000000;stroke-width:0.1;stroke-miterlimit:4;stroke-dasharray:none"
         d="m 108.695,125.35 h 14.81 v -3.1 h -14.81 v 3.1"
         id="path1258" />
      <path
         style="fill:none;stroke:#000000;stroke-width:0.1;stroke-miterlimit:4;stroke-dasharray:none"
         d="m 141.395,125.35 h 14.81 v -3.1 h -14.81 v 3.1"
         id="path1260" />
      <path
         style="fill:none;stroke:#000000;stroke-width:0.1;stroke-miterlimit:4;stroke-dasharray:none"
         d="m 174.095,125.35 h 14.81 v -3.1 h -14.81 v 3.1"
         id="path1262" />
      <path
         style="fill:none;stroke:#000000;stroke-width:0.1;stroke-miterlimit:4;stroke-dasharray:none"
         d="m 206.795,125.35 h 14.81 v -3.1 h -14.81 v 3.1"
         id="path1264" />
      <path
         style="fill:none;stroke:#000000;stroke-width:0.1;stroke-miterlimit:4;stroke-dasharray:none"
         d="m 58.2,58.2 h 17.795 v 1.4 l 0.1,0.1 v 0.1 l -0.1,0.1 v 1.4 h 14.81 v -1.4 l -0.1,-0.1 v -0.1 l 0.1,-0.1 v -1.4 h 17.89 v 1.4 l 0.1,0.1 v 0.1 l -0.1,0.1 v 1.4 h 14.81 v -1.4 l -0.1,-0.1 v -0.1 l 0.1,-0.1 v -1.4 h 17.89 v 1.4 l 0.1,0.1 v 0.1 l -0.1,0.1 v 1.4 h 14.81 v -1.4 l -0.1,-0.1 v -0.1 l 0.1,-0.1 v -1.4 h 17.89 v 1.4 l 0.1,0.1 v 0.1 l -0.1,0.1 v 1.4 h 14.81 v -1.4 l -0.1,-0.1 v -0.1 l 0.1,-0.1 v -1.4 h 17.89 v 1.4 l 0.1,0.1 v 0.1 l -0.1,0.1 v 1.4 h 14.81 v -1.4 l -0.1,-0.1 v -0.1 l 0.1,-0.1 V 58.2 H 239.4"
         id="path1266" />
      <path
         style="fill:none;stroke:#000000;stroke-width:0.1;stroke-miterlimit:4;stroke-dasharray:none"
         d="m 147.25,116.395 v 14.81 h 3.1 v -14.81 h -3.1"
         id="path1270" />
      <path
         style="fill:none;stroke:#000000;stroke-width:0.1;stroke-miterlimit:4;stroke-dasharray:none"
         d="m 147.25,152.945 v 14.81 h 3.1 v -14.81 h -3.1"
         id="path1272" />
      <path
         style="fill:none;stroke:#000000;stroke-width:0.1;stroke-miterlimit:4;stroke-dasharray:none"
         d="M 239.4,58.2 V 79.845 H 238 l -0.1,0.1 h -0.1 l -0.1,-0.1 h -1.4 v 14.81 h 1.4 l 0.1,-0.1 h 0.1 l 0.1,0.1 h 1.4 v 21.74 H 238 l -0.1,0.1 h -0.1 l -0.1,-0.1 h -1.4 v 14.81 h 1.4 l 0.1,-0.1 h 0.1 l 0.1,0.1 h 1.4 v 21.74 H 238 l -0.1,0.1 h -0.1 l -0.1,-0.1 h -1.4 v 14.81 h 1.4 l 0.1,-0.1 h 0.1 l 0.1,0.1 h 1.4 V 189.4"
         id="path1274" />
      <path
         style="fill:none;stroke:#000000;stroke-width:0.1;stroke-miterlimit:4;stroke-dasharray:none"
         d="M 239.4,189.4 H 221.605 V 188 l -0.1,-0.1 v -0.1 l 0.1,-0.1 v -1.4 h -14.81 v 1.4 l 0.1,0.1 v 0.1 l -0.1,0.1 v 1.4 h -17.89 V 188 l -0.1,-0.1 v -0.1 l 0.1,-0.1 v -1.4 h -14.81 v 1.4 l 0.1,0.1 v 0.1 l -0.1,0.1 v 1.4 h -17.89 V 188 l -0.1,-0.1 v -0.1 l 0.1,-0.1 v -1.4 h -14.81 v 1.4 l 0.1,0.1 v 0.1 l -0.1,0.1 v 1.4 h -17.89 V 188 l -0.1,-0.1 v -0.1 l 0.1,-0.1 v -1.4 h -14.81 v 1.4 l 0.1,0.1 v 0.1 l -0.1,0.1 v 1.4 H 90.805 V 188 l -0.1,-0.1 v -0.1 l 0.1,-0.1 v -1.4 h -14.81 v 1.4 l 0.1,0.1 v 0.1 l -0.1,0.1 v 1.4 H 58.2"
         id="path1276" />
      <path
         style="fill:none;stroke:#000000;stroke-width:0.1;stroke-miterlimit:4;stroke-dasharray:none"
         d="m 58.2,189.4 v -21.645 h 1.4 l 0.1,-0.1 h 0.1 l 0.1,0.1 h 1.4 v -14.81 h -1.4 l -0.1,0.1 h -0.1 l -0.1,-0.1 h -1.4 v -21.74 h 1.4 l 0.1,-0.1 h 0.1 l 0.1,0.1 h 1.4 v -14.81 h -1.4 l -0.1,0.1 h -0.1 l -0.1,-0.1 h -1.4 v -21.74 h 1.4 l 0.1,-0.1 h 0.1 l 0.1,0.1 h 1.4 v -14.81 h -1.4 l -0.1,0.1 h -0.1 l -0.1,-0.1 H 58.2 V 58.2"
         id="path1278" />
    </g>
    <g
       id="panel3591"
       transform="translate(-97.152861,-39.271923)"
       style="stroke-width:0.1;stroke-miterlimit:4;stroke-dasharray:none">
      <path
         style="fill:none;stroke:#000000;stroke-width:0.1;stroke-miterlimit:4;stroke-dasharray:none"
         d="m 243.5,125.35 h 17.405 v -3.1 H 243.5 v 3.1"
         id="path1281" />
      <path
         style="fill:none;stroke:#000000;stroke-width:0.1;stroke-miterlimit:4;stroke-dasharray:none"
         d="M 276.095,125.35 H 293.5 v -3.1 h -17.405 v 3.1"
         id="path1283" />
      <path
         style="fill:none;stroke:#000000;stroke-width:0.1;stroke-miterlimit:4;stroke-dasharray:none"
         d="m 243.5,61.3 h 17.405 v -1.4 l -0.1,-0.1 v -0.1 l 0.1,-0.1 v -1.4 h 15.19 v 1.4 l 0.1,0.1 v 0.1 l -0.1,0.1 v 1.4 H 293.5"
         id="path1285" />
      <path
         style="fill:none;stroke:#000000;stroke-width:0.1;stroke-miterlimit:4;stroke-dasharray:none"
         d="m 293.5,61.3 v 18.355 h 1.4 l 0.1,-0.1 h 0.1 l 0.1,0.1 h 1.4 v 15.19 h -1.4 l -0.1,0.1 H 295 l -0.1,-0.1 h -1.4 v 21.36 h 1.4 l 0.1,-0.1 h 0.1 l 0.1,0.1 h 1.4 v 15.19 h -1.4 l -0.1,0.1 H 295 l -0.1,-0.1 h -1.4 v 21.36 h 1.4 l 0.1,-0.1 h 0.1 l 0.1,0.1 h 1.4 v 15.19 h -1.4 l -0.1,0.1 H 295 l -0.1,-0.1 h -1.4 V 186.3"
         id="path1287" />
      <path
         style="fill:none;stroke:#000000;stroke-width:0.1;stroke-miterlimit:4;stroke-dasharray:none"
         d="m 293.5,186.3 h -17.405 v 1.4 l 0.1,0.1 v 0.1 l -0.1,0.1 v 1.4 h -15.19 V 188 l -0.1,-0.1 v -0.1 l 0.1,-0.1 v -1.4 H 243.5"
         id="path1289" />
      <path
         style="fill:none;stroke:#000000;stroke-width:0.1;stroke-miterlimit:4;stroke-dasharray:none"
         d="m 243.5,186.3 v -18.355 h -1.4 l -0.1,0.1 h -0.1 l -0.1,-0.1 h -1.4 v -15.19 h 1.4 l 0.1,-0.1 h 0.1 l 0.1,0.1 h 1.4 v -21.36 h -1.4 l -0.1,0.1 h -0.1 l -0.1,-0.1 h -1.4 v -15.19 h 1.4 l 0.1,-0.1 h 0.1 l 0.1,0.1 h 1.4 v -21.36 h -1.4 l -0.1,0.1 h -0.1 l -0.1,-0.1 h -1.4 v -15.19 h 1.4 l 0.1,-0.1 h 0.1 l 0.1,0.1 h 1.4 V 61.3"
         id="path1291" />
    </g>
    <g
       id="g893"
       transform="translate(-39.146587,126.47359)">
      <path
         style="fill:none;stroke:#000000;stroke-width:0.1;stroke-miterlimit:4;stroke-dasharray:none"
         d="m 184.63794,35.490095 h 17.795 v 1.4 l 0.1,0.1 v 0.1 l -0.1,0.1 v 1.4 h 14.81 v -1.4 l -0.1,-0.1 v -0.1 l 0.1,-0.1 v -1.4 h 17.89 v 1.4 l 0.1,0.1 v 0.1 l -0.1,0.1 v 1.4 h 14.81 v -1.4 l -0.1,-0.1 v -0.1 l 0.1,-0.1 v -1.4 h 17.89 v 1.4 l 0.1,0.1 v 0.1 l -0.1,0.1 v 1.4 h 14.81 v -1.4 l -0.1,-0.1 v -0.1 l 0.1,-0.1 v -1.4 h 17.89 v 1.4 l 0.1,0.1 v 0.1 l -0.1,0.1 v 1.4 h 14.81 v -1.4 l -0.1,-0.1 v -0.1 l 0.1,-0.1 v -1.4 h 17.89 v 1.4 l 0.1,0.1 v 0.1 l -0.1,0.1 v 1.4 h 14.81 v -1.4 l -0.1,-0.1 v -0.1 l 0.1,-0.1 v -1.4 h 17.795"
         id="path1304" />
      <path
         style="fill:none;stroke:#000000;stroke-width:0.1;stroke-miterlimit:4;stroke-dasharray:none"
         d="m 365.83794,35.490095 v 21.645 h -1.4 l -0.1,0.1 h -0.1 l -0.1,-0.1 h -1.4 v 14.81 h 1.4 l 0.1,-0.1 h 0.1 l 0.1,0.1 h 1.4 v 21.74 h -1.4 l -0.1,0.1 h -0.1 l -0.1,-0.1 h -1.4 v 14.809995 h 1.4 l 0.1,-0.1 h 0.1 l 0.1,0.1 h 1.4 v 21.74 h -1.4 l -0.1,0.1 h -0.1 l -0.1,-0.1 h -1.4 v 14.81 h 1.4 l 0.1,-0.1 h 0.1 l 0.1,0.1 h 1.4 v 21.645"
         id="path1312" />
      <path
         style="fill:none;stroke:#000000;stroke-width:0.1;stroke-miterlimit:4;stroke-dasharray:none"
         d="m 365.83794,166.69009 h -17.795 v -1.39999 l -0.1,-0.10001 v -0.1 l 0.1,-0.10001 v -1.39999 h -14.81 v 1.39999 l 0.1,0.10001 v 0.1 l -0.1,0.10001 v 1.39999 h -17.89 v -1.39999 l -0.1,-0.10001 v -0.1 l 0.1,-0.10001 v -1.39999 h -14.81 v 1.39999 l 0.1,0.10001 v 0.1 l -0.1,0.10001 v 1.39999 h -17.89 v -1.39999 l -0.1,-0.10001 v -0.1 l 0.1,-0.10001 v -1.39999 h -14.81 v 1.39999 l 0.1,0.10001 v 0.1 l -0.1,0.10001 v 1.39999 h -17.89 v -1.39999 l -0.1,-0.10001 v -0.1 l 0.1,-0.10001 v -1.39999 h -14.81 v 1.39999 l 0.1,0.10001 v 0.1 l -0.1,0.10001 v 1.39999 h -17.89 v -1.39999 l -0.1,-0.10001 v -0.1 l 0.1,-0.10001 v -1.39999 h -14.81 v 1.39999 l 0.1,0.10001 v 0.1 l -0.1,0.10001 v 1.39999 h -17.795"
         id="path1314" />
      <path
         style="fill:none;stroke:#000000;stroke-width:0.1;stroke-miterlimit:4;stroke-dasharray:none"
         d="m 184.63794,166.69009 v -21.645 h 1.4 l 0.1,-0.1 h 0.1 l 0.1,0.1 h 1.4 v -14.81 h -1.4 l -0.1,0.1 h -0.1 l -0.1,-0.1 h -1.4 v -21.74 h 1.4 l 0.1,-0.1 h 0.1 l 0.1,0.1 h 1.4 V 93.685095 h -1.4 l -0.1,0.1 h -0.1 l -0.1,-0.1 h -1.4 v -21.74 h 1.4 l 0.1,-0.1 h 0.1 l 0.1,0.1 h 1.4 v -14.81 h -1.4 l -0.1,0.1 h -0.1 l -0.1,-0.1 h -1.4 v -21.645"
         id="path1316" />
    </g>
    <path
       style="fill:none;stroke:#000000;stroke-width:0.1;stroke-miterlimit:4;stroke-dasharray:none"
       d="m 44.508945,261.62127 v 14.81 h 3.1 v -14.81 h -3.1"
       id="path1396" />
    <g
       id="panel1438"
       transform="translate(-112.96206,-22.709905)"
       style="stroke-width:0.1;stroke-miterlimit:4;stroke-dasharray:none">
      <path
         style="fill:none;stroke:#000000;stroke-width:0.1;stroke-miterlimit:4;stroke-dasharray:none"
         d="M 58.2,4.1 H 75.805 V 2.7 l -0.1,-0.1 V 2.5 l 0.1,-0.1 V 1 h 15.19 v 1.4 l 0.1,0.1 v 0.1 l -0.1,0.1 v 1.4 h 17.51 V 2.7 l -0.1,-0.1 V 2.5 l 0.1,-0.1 V 1 h 15.19 v 1.4 l 0.1,0.1 v 0.1 l -0.1,0.1 v 1.4 h 17.51 V 2.7 l -0.1,-0.1 V 2.5 l 0.1,-0.1 V 1 h 15.19 v 1.4 l 0.1,0.1 v 0.1 l -0.1,0.1 v 1.4 h 17.51 V 2.7 l -0.1,-0.1 V 2.5 l 0.1,-0.1 V 1 h 15.19 v 1.4 l 0.1,0.1 v 0.1 l -0.1,0.1 v 1.4 h 17.51 V 2.7 l -0.1,-0.1 V 2.5 l 0.1,-0.1 V 1 h 15.19 v 1.4 l 0.1,0.1 v 0.1 l -0.1,0.1 V 4.1 H 239.4"
         id="path1319" />
      <path
         style="fill:none;stroke:#000000;stroke-width:0.1;stroke-miterlimit:4;stroke-dasharray:none"
         d="M 239.4,4.1 V 21.695 H 238 l -0.1,0.1 h -0.1 l -0.1,-0.1 h -1.4 v 14.81 h 1.4 l 0.1,-0.1 h 0.1 l 0.1,0.1 h 1.4 V 54.1"
         id="path1323" />
      <path
         style="fill:none;stroke:#000000;stroke-width:0.1;stroke-miterlimit:4;stroke-dasharray:none"
         d="m 239.4,54.1 h -17.605 v 1.4 l 0.1,0.1 v 0.1 l -0.1,0.1 v 1.4 h -15.19 v -1.4 l -0.1,-0.1 v -0.1 l 0.1,-0.1 v -1.4 h -17.51 v 1.4 l 0.1,0.1 v 0.1 l -0.1,0.1 v 1.4 h -15.19 v -1.4 l -0.1,-0.1 v -0.1 l 0.1,-0.1 v -1.4 h -17.51 v 1.4 l 0.1,0.1 v 0.1 l -0.1,0.1 v 1.4 h -15.19 v -1.4 l -0.1,-0.1 v -0.1 l 0.1,-0.1 v -1.4 h -17.51 v 1.4 l 0.1,0.1 v 0.1 l -0.1,0.1 v 1.4 h -15.19 v -1.4 l -0.1,-0.1 v -0.1 l 0.1,-0.1 v -1.4 h -17.51 v 1.4 l 0.1,0.1 v 0.1 l -0.1,0.1 v 1.4 h -15.19 v -1.4 l -0.1,-0.1 v -0.1 l 0.1,-0.1 V 54.1 H 58.2"
         id="path1325" />
      <path
         style="fill:none;stroke:#000000;stroke-width:0.1;stroke-miterlimit:4;stroke-dasharray:none"
         d="M 58.2,54.1 V 36.505 h 1.4 l 0.1,-0.1 h 0.1 l 0.1,0.1 h 1.4 v -14.81 h -1.4 l -0.1,0.1 h -0.1 l -0.1,-0.1 H 58.2 V 4.1"
         id="path1327" />
    </g>
  </g>
</svg>
