<?xml version="1.0" encoding="UTF-8" standalone="no"?>
<svg
   xmlns:dc="http://purl.org/dc/elements/1.1/"
   xmlns:cc="http://creativecommons.org/ns#"
   xmlns:rdf="http://www.w3.org/1999/02/22-rdf-syntax-ns#"
   xmlns:svg="http://www.w3.org/2000/svg"
   xmlns="http://www.w3.org/2000/svg"
   xmlns:sodipodi="http://sodipodi.sourceforge.net/DTD/sodipodi-0.dtd"
   xmlns:inkscape="http://www.inkscape.org/namespaces/inkscape"
   width="210mm"
   height="297mm"
   viewBox="0 0 210 297"
   version="1.1"
   id="svg8"
   sodipodi:docname="verkefni 3 verksmiðja.svg"
   inkscape:version="1.0.1 (3bc2e813f5, 2020-09-07)">
  <defs
     id="defs2">
    <inkscape:path-effect
       effect="powerstroke"
       id="path-effect1472"
       is_visible="true"
       lpeversion="1"
       offset_points="3,0.12945605"
       sort_points="true"
       interpolator_type="CubicBezierJohan"
       interpolator_beta="0.2"
       start_linecap_type="zerowidth"
       linejoin_type="extrp_arc"
       miter_limit="4"
       scale_width="1"
       end_linecap_type="zerowidth" />
    <inkscape:path-effect
       effect="powerstroke"
       id="path-effect1426"
       is_visible="true"
       lpeversion="1"
       offset_points="3,0.12945605"
       sort_points="true"
       interpolator_type="CubicBezierJohan"
       interpolator_beta="0.2"
       start_linecap_type="zerowidth"
       linejoin_type="extrp_arc"
       miter_limit="4"
       scale_width="1"
       end_linecap_type="zerowidth" />
    <inkscape:path-effect
       effect="powerstroke"
       id="path-effect849"
       is_visible="true"
       lpeversion="1"
       offset_points="3,0.12945605"
       sort_points="true"
       interpolator_type="CubicBezierJohan"
       interpolator_beta="0.2"
       start_linecap_type="zerowidth"
       linejoin_type="extrp_arc"
       miter_limit="4"
       scale_width="1"
       end_linecap_type="zerowidth" />
    <inkscape:path-effect
       effect="powerstroke"
       id="path-effect841"
       is_visible="true"
       lpeversion="1"
       offset_points="1,0.1428422"
       sort_points="true"
       interpolator_type="CubicBezierJohan"
       interpolator_beta="0.2"
       start_linecap_type="zerowidth"
       linejoin_type="extrp_arc"
       miter_limit="4"
       scale_width="1"
       end_linecap_type="zerowidth" />
    <inkscape:path-effect
       effect="skeletal"
       id="path-effect837"
       is_visible="true"
       lpeversion="1"
       pattern="M 0,5 C 0,2.24 2.24,0 5,0 7.76,0 10,2.24 10,5 10,7.76 7.76,10 5,10 2.24,10 0,7.76 0,5 Z"
       copytype="single_stretched"
       prop_scale="1"
       scale_y_rel="false"
       spacing="0"
       normal_offset="0"
       tang_offset="0"
       prop_units="false"
       vertical_pattern="false"
       hide_knot="false"
       fuse_tolerance="0" />
  </defs>
  <sodipodi:namedview
     id="base"
     pagecolor="#ffffff"
     bordercolor="#666666"
     borderopacity="1.0"
     inkscape:pageopacity="0.0"
     inkscape:pageshadow="2"
     inkscape:zoom="11.246617"
     inkscape:cx="266.64412"
     inkscape:cy="278.44836"
     inkscape:document-units="mm"
     inkscape:current-layer="panel7287"
     inkscape:document-rotation="0"
     showgrid="false"
     showguides="true"
     inkscape:guide-bbox="true"
     inkscape:window-width="1920"
     inkscape:window-height="1001"
     inkscape:window-x="-9"
     inkscape:window-y="-9"
     inkscape:window-maximized="1" />
  <metadata
     id="metadata5">
    <rdf:RDF>
      <cc:Work
         rdf:about="">
        <dc:format>image/svg+xml</dc:format>
        <dc:type
           rdf:resource="http://purl.org/dc/dcmitype/StillImage" />
      </cc:Work>
    </rdf:RDF>
  </metadata>
  <g
     inkscape:label="Layer 1"
     inkscape:groupmode="layer"
     id="layer1">
    <g
       id="panel6697"
       transform="matrix(0.4286103,0,0,0.4286103,2.7379541,24.344588)">
      <path
         style="fill:none;stroke:#000000;stroke-width:1"
         d="m 58.2,193.5 h 17.605 v -1.4 l -0.1,-0.1 v -0.1 l 0.1,-0.1 v -1.4 h 15.19 v 1.4 l 0.1,0.1 v 0.1 l -0.1,0.1 v 1.4 h 17.51 v -1.4 l -0.1,-0.1 v -0.1 l 0.1,-0.1 v -1.4 h 15.19 v 1.4 l 0.1,0.1 v 0.1 l -0.1,0.1 v 1.4 h 17.51 v -1.4 l -0.1,-0.1 v -0.1 l 0.1,-0.1 v -1.4 h 15.19 v 1.4 l 0.1,0.1 v 0.1 l -0.1,0.1 v 1.4 h 17.51 v -1.4 l -0.1,-0.1 v -0.1 l 0.1,-0.1 v -1.4 h 15.19 v 1.4 l 0.1,0.1 v 0.1 l -0.1,0.1 v 1.4 h 17.51 v -1.4 l -0.1,-0.1 v -0.1 l 0.1,-0.1 v -1.4 h 15.19 v 1.4 l 0.1,0.1 v 0.1 l -0.1,0.1 v 1.4 H 239.4"
         id="path1210" />
      <path
         style="fill:none;stroke:#000000;stroke-width:1"
         d="m 147.25,211.095 v 14.81 h 3.1 v -14.81 h -3.1"
         id="path1212" />
      <path
         style="fill:none;stroke:#000000;stroke-width:1"
         d="m 239.4,193.5 v 17.595 H 238 l -0.1,0.1 h -0.1 l -0.1,-0.1 h -1.4 v 14.81 h 1.4 l 0.1,-0.1 h 0.1 l 0.1,0.1 h 1.4 V 243.5"
         id="path1214" />
      <path
         style="fill:none;stroke:#000000;stroke-width:1"
         d="m 239.4,243.5 h -17.605 v 1.4 l 0.1,0.1 v 0.1 l -0.1,0.1 v 1.4 h -15.19 v -1.4 l -0.1,-0.1 V 245 l 0.1,-0.1 v -1.4 h -17.51 v 1.4 l 0.1,0.1 v 0.1 l -0.1,0.1 v 1.4 h -15.19 v -1.4 l -0.1,-0.1 V 245 l 0.1,-0.1 v -1.4 h -17.51 v 1.4 l 0.1,0.1 v 0.1 l -0.1,0.1 v 1.4 h -15.19 v -1.4 l -0.1,-0.1 V 245 l 0.1,-0.1 v -1.4 h -17.51 v 1.4 l 0.1,0.1 v 0.1 l -0.1,0.1 v 1.4 h -15.19 v -1.4 l -0.1,-0.1 V 245 l 0.1,-0.1 v -1.4 h -17.51 v 1.4 l 0.1,0.1 v 0.1 l -0.1,0.1 v 1.4 h -15.19 v -1.4 l -0.1,-0.1 V 245 l 0.1,-0.1 v -1.4 H 58.2"
         id="path1216" />
      <path
         style="fill:none;stroke:#000000;stroke-width:1"
         d="m 58.2,243.5 v -17.595 h 1.4 l 0.1,-0.1 h 0.1 l 0.1,0.1 h 1.4 v -14.81 h -1.4 l -0.1,0.1 h -0.1 l -0.1,-0.1 H 58.2 V 193.5"
         id="path1218" />
    </g>
    <g
       id="g1413"
       transform="matrix(0.4286103,0,0,0.4286103,-148.89824,37.304948)">
      <path
         style="fill:none;stroke:#000000;stroke-width:1"
         d="m 422.20671,236.49808 c 181.2,0 0,0 181.2,0"
         id="path1221"
         sodipodi:nodetypes="cc" />
      <path
         style="fill:none;stroke:#000000;stroke-width:1"
         d="m 603.40671,236.49808 v 17.595 h -1.4 l -0.1,0.1 h -0.1 l -0.1,-0.1 h -1.4 v 14.81 h 1.4 l 0.1,-0.1 h 0.1 l 0.1,0.1 h 1.4 v 17.595"
         id="path1225" />
      <path
         style="fill:none;stroke:#000000;stroke-width:1"
         d="m 603.40671,286.49808 h -17.605 v 1.4 l 0.1,0.1 v 0.1 l -0.1,0.1 v 1.4 h -15.19 v -1.4 l -0.1,-0.1 v -0.1 l 0.1,-0.1 v -1.4 h -17.51 v 1.4 l 0.1,0.1 v 0.1 l -0.1,0.1 v 1.4 h -15.19 v -1.4 l -0.1,-0.1 v -0.1 l 0.1,-0.1 v -1.4 h -17.51 v 1.4 l 0.1,0.1 v 0.1 l -0.1,0.1 v 1.4 h -15.19 v -1.4 l -0.1,-0.1 v -0.1 l 0.1,-0.1 v -1.4 h -17.51 v 1.4 l 0.1,0.1 v 0.1 l -0.1,0.1 v 1.4 h -15.19 v -1.4 l -0.1,-0.1 v -0.1 l 0.1,-0.1 v -1.4 h -17.51 v 1.4 l 0.1,0.1 v 0.1 l -0.1,0.1 v 1.4 h -15.19 v -1.4 l -0.1,-0.1 v -0.1 l 0.1,-0.1 v -1.4 h -17.605"
         id="path1227" />
      <path
         style="fill:none;stroke:#000000;stroke-width:1"
         d="m 422.20671,286.49808 v -17.595 h 1.4 l 0.1,-0.1 h 0.1 l 0.1,0.1 h 1.4 v -14.81 h -1.4 l -0.1,0.1 h -0.1 l -0.1,-0.1 h -1.4 v -17.595"
         id="path1229" />
    </g>
    <g
       id="panel2942"
       transform="matrix(0.4286103,0,0,0.4286103,2.7379541,24.344588)">
      <path
         style="fill:none;stroke:#000000;stroke-width:1"
         d="m 4.1,125.35 h 17.405 v -3.1 H 4.1 v 3.1"
         id="path1232" />
      <path
         style="fill:none;stroke:#000000;stroke-width:1"
         d="M 36.695,125.35 H 54.1 v -3.1 H 36.695 v 3.1"
         id="path1234" />
      <path
         style="fill:none;stroke:#000000;stroke-width:1"
         d="m 4.1,61.3 h 17.405 v -1.4 l -0.1,-0.1 v -0.1 l 0.1,-0.1 v -1.4 h 15.19 v 1.4 l 0.1,0.1 v 0.1 l -0.1,0.1 v 1.4 H 54.1"
         id="path1236" />
      <path
         style="fill:none;stroke:#000000;stroke-width:1"
         d="m 54.1,61.3 v 18.355 h 1.4 l 0.1,-0.1 h 0.1 l 0.1,0.1 h 1.4 v 15.19 h -1.4 l -0.1,0.1 h -0.1 l -0.1,-0.1 h -1.4 v 21.36 h 1.4 l 0.1,-0.1 h 0.1 l 0.1,0.1 h 1.4 v 15.19 h -1.4 l -0.1,0.1 h -0.1 l -0.1,-0.1 h -1.4 v 21.36 h 1.4 l 0.1,-0.1 h 0.1 l 0.1,0.1 h 1.4 v 15.19 h -1.4 l -0.1,0.1 h -0.1 l -0.1,-0.1 H 54.1 V 186.3"
         id="path1238" />
      <path
         style="fill:none;stroke:#000000;stroke-width:1"
         d="M 54.1,186.3 H 36.695 v 1.4 l 0.1,0.1 v 0.1 l -0.1,0.1 v 1.4 H 21.505 V 188 l -0.1,-0.1 v -0.1 l 0.1,-0.1 v -1.4 H 4.1"
         id="path1240" />
      <path
         style="fill:none;stroke:#000000;stroke-width:1"
         d="M 4.1,186.3 V 167.945 H 2.7 l -0.1,0.1 H 2.5 l -0.1,-0.1 H 1 v -15.19 h 1.4 l 0.1,-0.1 h 0.1 l 0.1,0.1 h 1.4 v -21.36 H 2.7 l -0.1,0.1 H 2.5 l -0.1,-0.1 H 1 v -15.19 h 1.4 l 0.1,-0.1 h 0.1 l 0.1,0.1 H 4.1 V 94.845 H 2.7 l -0.1,0.1 H 2.5 l -0.1,-0.1 H 1 v -15.19 h 1.4 l 0.1,-0.1 h 0.1 l 0.1,0.1 H 4.1 V 61.3"
         id="path1242" />
    </g>
    <g
       id="panel6690"
       transform="matrix(0.4286103,0,0,0.4286103,2.7379541,24.344588)">
      <path
         style="fill:none;stroke:#000000;stroke-width:1"
         d="m 69.640426,333.14377 h 17.405 v -1.4 l -0.1,-0.1 v -0.1 l 0.1,-0.1 v -1.4 h 15.190004 v 1.4 l 0.1,0.1 v 0.1 l -0.1,0.1 v 1.4 l 20.505,-0.0137"
         id="path1247"
         sodipodi:nodetypes="cccccccccccccc" />
      <path
         style="fill:none;stroke:#000000;stroke-width:1"
         d="m 122.74043,333.13011 v 7.60225 h -1.4 l -0.1,0.1 h -0.1 l -0.1,-0.1 h -1.4 v 21.36 h 1.4 l 0.1,-0.1 h 0.1 l 0.1,0.1 h 1.4 v 15.19 h -1.4 l -0.1,0.1 h -0.1 l -0.1,-0.1 h -1.4 v 18.355"
         id="path1249"
         sodipodi:nodetypes="cccccccccccccccccccc" />
      <path
         style="fill:none;stroke:#000000;stroke-width:1"
         d="m 119.64043,395.63736 h -17.405 v 1.4 l 0.1,0.1 v 0.1 l -0.1,0.1 v 1.4 H 87.045426 v -1.4 l -0.1,-0.1 v -0.1 l 0.1,-0.1 v -1.4 h -17.405"
         id="path1251" />
      <path
         style="fill:none;stroke:#000000;stroke-width:1"
         d="M 69.640426,395.63736 V 333.14377"
         id="path1253"
         sodipodi:nodetypes="cc" />
    </g>
    <g
       id="panel7287"
       transform="matrix(0.4286103,0,0,0.4286103,2.7379541,24.344588)">
      <path
         style="fill:none;stroke:#000000;stroke-width:1"
         d="m 75.995,125.35 h 14.81 v -3.1 h -14.81 v 3.1"
         id="path1256" />
      <path
         style="fill:none;stroke:#000000;stroke-width:1"
         d="m 108.695,125.35 h 14.81 v -3.1 h -14.81 v 3.1"
         id="path1258" />
      <path
         style="fill:none;stroke:#000000;stroke-width:1"
         d="m 141.395,125.35 h 14.81 v -3.1 h -14.81 v 3.1"
         id="path1260" />
      <path
         style="fill:none;stroke:#000000;stroke-width:1"
         d="m 174.095,125.35 h 14.81 v -3.1 h -14.81 v 3.1"
         id="path1262" />
      <path
         style="fill:none;stroke:#000000;stroke-width:1"
         d="m 206.795,125.35 h 14.81 v -3.1 h -14.81 v 3.1"
         id="path1264" />
      <path
         style="fill:none;stroke:#000000;stroke-width:1"
         d="m 58.2,58.2 h 17.795 v 1.4 l 0.1,0.1 v 0.1 l -0.1,0.1 v 1.4 h 14.81 v -1.4 l -0.1,-0.1 v -0.1 l 0.1,-0.1 v -1.4 h 17.89 v 1.4 l 0.1,0.1 v 0.1 l -0.1,0.1 v 1.4 h 14.81 v -1.4 l -0.1,-0.1 v -0.1 l 0.1,-0.1 v -1.4 h 17.89 v 1.4 l 0.1,0.1 v 0.1 l -0.1,0.1 v 1.4 h 14.81 v -1.4 l -0.1,-0.1 v -0.1 l 0.1,-0.1 v -1.4 h 17.89 v 1.4 l 0.1,0.1 v 0.1 l -0.1,0.1 v 1.4 h 14.81 v -1.4 l -0.1,-0.1 v -0.1 l 0.1,-0.1 v -1.4 h 17.89 v 1.4 l 0.1,0.1 v 0.1 l -0.1,0.1 v 1.4 h 14.81 v -1.4 l -0.1,-0.1 v -0.1 l 0.1,-0.1 V 58.2 H 239.4"
         id="path1266" />
      <path
         style="fill:none;stroke:#000000;stroke-width:0.778293"
         d="m 147.25,122.23398 v 8.97102 h 3.1 v -8.97102 h -3.1"
         id="path1270" />
      <path
         style="fill:none;stroke:#000000;stroke-width:1"
         d="m 147.25,152.945 v 14.81 h 3.1 v -14.81 h -3.1"
         id="path1272" />
      <path
         style="fill:none;stroke:#000000;stroke-width:1"
         d="M 239.4,58.2 V 79.845 H 238 l -0.1,0.1 h -0.1 l -0.1,-0.1 h -1.4 v 14.81 h 1.4 l 0.1,-0.1 h 0.1 l 0.1,0.1 h 1.4 v 21.74 H 238 l -0.1,0.1 h -0.1 l -0.1,-0.1 h -1.4 v 14.81 h 1.4 l 0.1,-0.1 h 0.1 l 0.1,0.1 h 1.4 v 21.74 H 238 l -0.1,0.1 h -0.1 l -0.1,-0.1 h -1.4 v 14.81 h 1.4 l 0.1,-0.1 h 0.1 l 0.1,0.1 h 1.4 V 189.4"
         id="path1274" />
      <path
         style="fill:none;stroke:#000000;stroke-width:1"
         d="M 239.4,189.4 H 221.605 V 188 l -0.1,-0.1 v -0.1 l 0.1,-0.1 v -1.4 h -14.81 v 1.4 l 0.1,0.1 v 0.1 l -0.1,0.1 v 1.4 h -17.89 V 188 l -0.1,-0.1 v -0.1 l 0.1,-0.1 v -1.4 h -14.81 v 1.4 l 0.1,0.1 v 0.1 l -0.1,0.1 v 1.4 h -17.89 V 188 l -0.1,-0.1 v -0.1 l 0.1,-0.1 v -1.4 h -14.81 v 1.4 l 0.1,0.1 v 0.1 l -0.1,0.1 v 1.4 h -17.89 V 188 l -0.1,-0.1 v -0.1 l 0.1,-0.1 v -1.4 h -14.81 v 1.4 l 0.1,0.1 v 0.1 l -0.1,0.1 v 1.4 H 90.805 V 188 l -0.1,-0.1 v -0.1 l 0.1,-0.1 v -1.4 h -14.81 v 1.4 l 0.1,0.1 v 0.1 l -0.1,0.1 v 1.4 H 58.2"
         id="path1276" />
      <path
         style="fill:none;stroke:#000000;stroke-width:1"
         d="m 58.2,189.4 v -21.645 h 1.4 l 0.1,-0.1 h 0.1 l 0.1,0.1 h 1.4 v -14.81 h -1.4 l -0.1,0.1 h -0.1 l -0.1,-0.1 h -1.4 v -21.74 h 1.4 l 0.1,-0.1 h 0.1 l 0.1,0.1 h 1.4 v -14.81 h -1.4 l -0.1,0.1 h -0.1 l -0.1,-0.1 h -1.4 v -21.74 h 1.4 l 0.1,-0.1 h 0.1 l 0.1,0.1 h 1.4 v -14.81 h -1.4 l -0.1,0.1 h -0.1 l -0.1,-0.1 H 58.2 V 58.2"
         id="path1278" />
    </g>
    <g
       id="panel3591"
       transform="matrix(0.4286103,0,0,0.4286103,2.7379541,24.344588)">
      <path
         style="fill:none;stroke:#000000;stroke-width:1"
         d="m 243.5,125.35 h 17.405 v -3.1 H 243.5 v 3.1"
         id="path1281" />
      <path
         style="fill:none;stroke:#000000;stroke-width:1"
         d="M 276.095,125.35 H 293.5 v -3.1 h -17.405 v 3.1"
         id="path1283" />
      <path
         style="fill:none;stroke:#000000;stroke-width:1"
         d="m 243.5,61.3 h 17.405 v -1.4 l -0.1,-0.1 v -0.1 l 0.1,-0.1 v -1.4 h 15.19 v 1.4 l 0.1,0.1 v 0.1 l -0.1,0.1 v 1.4 H 293.5"
         id="path1285" />
      <path
         style="fill:none;stroke:#000000;stroke-width:1"
         d="m 293.5,61.3 v 18.355 h 1.4 l 0.1,-0.1 h 0.1 l 0.1,0.1 h 1.4 v 15.19 h -1.4 l -0.1,0.1 H 295 l -0.1,-0.1 h -1.4 v 21.36 h 1.4 l 0.1,-0.1 h 0.1 l 0.1,0.1 h 1.4 v 15.19 h -1.4 l -0.1,0.1 H 295 l -0.1,-0.1 h -1.4 v 21.36 h 1.4 l 0.1,-0.1 h 0.1 l 0.1,0.1 h 1.4 v 15.19 h -1.4 l -0.1,0.1 H 295 l -0.1,-0.1 h -1.4 V 186.3"
         id="path1287" />
      <path
         style="fill:none;stroke:#000000;stroke-width:1"
         d="m 293.5,186.3 h -17.405 v 1.4 l 0.1,0.1 v 0.1 l -0.1,0.1 v 1.4 h -15.19 V 188 l -0.1,-0.1 v -0.1 l 0.1,-0.1 v -1.4 H 243.5"
         id="path1289" />
      <path
         style="fill:none;stroke:#000000;stroke-width:1"
         d="m 243.5,186.3 v -18.355 h -1.4 l -0.1,0.1 h -0.1 l -0.1,-0.1 h -1.4 v -15.19 h 1.4 l 0.1,-0.1 h 0.1 l 0.1,0.1 h 1.4 v -21.36 h -1.4 l -0.1,0.1 h -0.1 l -0.1,-0.1 h -1.4 v -15.19 h 1.4 l 0.1,-0.1 h 0.1 l 0.1,0.1 h 1.4 v -21.36 h -1.4 l -0.1,0.1 h -0.1 l -0.1,-0.1 h -1.4 v -15.19 h 1.4 l 0.1,-0.1 h 0.1 l 0.1,0.1 h 1.4 V 61.3"
         id="path1291" />
    </g>
    <g
       id="g946">
      <path
         style="fill:none;stroke:#000000;stroke-width:0.42861"
         d="m 130.29238,49.289708 h 7.62712 v 0.60005 l 0.0429,0.0429 v 0.0429 l -0.0429,0.0429 v 0.60005 h 6.34772 v -0.60005 l -0.0429,-0.0429 v -0.0429 l 0.0429,-0.0429 v -0.60005 h 7.66784 v 0.60005 l 0.0429,0.0429 v 0.0429 l -0.0429,0.0429 v 0.60005 h 6.34771 v -0.60005 l -0.0429,-0.0429 v -0.0429 l 0.0429,-0.0429 v -0.60005 h 7.66784 v 0.60005 l 0.0429,0.0429 v 0.0429 l -0.0429,0.0429 v 0.60005 h 6.34772 v -0.60005 l -0.0429,-0.0429 v -0.0429 l 0.0429,-0.0429 v -0.60005 h 7.66784 v 0.60005 l 0.0429,0.0429 v 0.0429 l -0.0429,0.0429 v 0.60005 h 6.34772 v -0.60005 l -0.0429,-0.0429 v -0.0429 l 0.0429,-0.0429 v -0.60005 h 7.66784 v 0.60005 l 0.0429,0.0429 v 0.0429 l -0.0429,0.0429 v 0.60005 h 6.34772 v -0.60005 l -0.0429,-0.0429 v -0.0429 l 0.0429,-0.0429 v -0.60005 h 7.62712"
         id="path1304" />
      <path
         style="fill:none;stroke:#000000;stroke-width:0.42861"
         d="m 207.95657,49.289708 v 9.27727 h -0.60005 l -0.0429,0.0429 h -0.0429 l -0.0429,-0.0429 h -0.60005 v 6.34772 h 0.60005 l 0.0429,-0.0429 h 0.0429 l 0.0429,0.0429 h 0.60005 v 9.31799 h -0.60005 l -0.0429,0.0429 h -0.0429 l -0.0429,-0.0429 h -0.60005 v 6.34771 h 0.60005 l 0.0429,-0.0429 h 0.0429 l 0.0429,0.0429 h 0.60005 v 9.31799 h -0.60005 l -0.0429,0.0429 h -0.0429 l -0.0429,-0.0429 h -0.60005 v 6.34772 h 0.60005 l 0.0429,-0.0429 h 0.0429 l 0.0429,0.0429 h 0.60005 v 9.277272"
         id="path1312" />
      <path
         style="fill:none;stroke:#000000;stroke-width:0.42861"
         d="m 207.95657,105.52338 h -7.62712 v -0.60005 l -0.0429,-0.0429 v -0.0429 l 0.0429,-0.0429 v -0.60005 h -6.34772 v 0.60005 l 0.0429,0.0429 v 0.0429 l -0.0429,0.0429 v 0.60005 h -7.66784 v -0.60005 l -0.0429,-0.0429 v -0.0429 l 0.0429,-0.0429 v -0.60005 h -6.34772 v 0.60005 l 0.0429,0.0429 v 0.0429 l -0.0429,0.0429 v 0.60005 h -7.66784 v -0.60005 l -0.0429,-0.0429 v -0.0429 l 0.0429,-0.0429 v -0.60005 h -6.34772 v 0.60005 l 0.0429,0.0429 v 0.0429 l -0.0429,0.0429 v 0.60005 h -7.66784 v -0.60005 l -0.0429,-0.0429 v -0.0429 l 0.0429,-0.0429 v -0.60005 h -6.34771 v 0.60005 l 0.0429,0.0429 v 0.0429 l -0.0429,0.0429 v 0.60005 h -7.66784 v -0.60005 l -0.0429,-0.0429 v -0.0429 l 0.0429,-0.0429 v -0.60005 h -6.34772 v 0.60005 l 0.0429,0.0429 v 0.0429 l -0.0429,0.0429 v 0.60005 h -7.62712"
         id="path1314" />
      <path
         style="fill:none;stroke:#000000;stroke-width:0.42861"
         d="m 130.29238,105.52338 v -9.277272 h 0.60005 l 0.0429,-0.0429 h 0.0429 l 0.0429,0.0429 h 0.60006 v -6.34772 h -0.60005 l -0.0429,0.0429 h -0.0429 l -0.0429,-0.0429 h -0.60006 v -9.31799 h 0.60006 l 0.0429,-0.0429 h 0.0429 l 0.0429,0.0429 h 0.60005 v -6.34771 h -0.60005 l -0.0429,0.0429 h -0.0429 l -0.0429,-0.0429 h -0.60006 v -9.31799 h 0.60006 l 0.0429,-0.0429 h 0.0429 l 0.0429,0.0429 h 0.60005 v -6.34772 h -0.60005 l -0.0429,0.0429 h -0.0429 l -0.0429,-0.0429 h -0.60006 v -9.27727"
         id="path1316" />
    </g>
    <path
       style="fill:none;stroke:#000000;stroke-width:0.42861"
       d="m 70.231647,146.21186 v 6.34772 h 1.328692 v -6.34772 h -1.328692"
       id="path1396" />
    <g
       id="panel1438"
       transform="matrix(0.4286103,0,0,0.4286103,2.7379541,24.344588)">
      <path
         style="fill:none;stroke:#000000;stroke-width:1"
         d="M 58.2,4.1 H 75.805 V 2.7 l -0.1,-0.1 V 2.5 l 0.1,-0.1 V 1 h 15.19 v 1.4 l 0.1,0.1 v 0.1 l -0.1,0.1 v 1.4 h 17.51 V 2.7 l -0.1,-0.1 V 2.5 l 0.1,-0.1 V 1 h 15.19 v 1.4 l 0.1,0.1 v 0.1 l -0.1,0.1 v 1.4 h 17.51 V 2.7 l -0.1,-0.1 V 2.5 l 0.1,-0.1 V 1 h 15.19 v 1.4 l 0.1,0.1 v 0.1 l -0.1,0.1 v 1.4 h 17.51 V 2.7 l -0.1,-0.1 V 2.5 l 0.1,-0.1 V 1 h 15.19 v 1.4 l 0.1,0.1 v 0.1 l -0.1,0.1 v 1.4 h 17.51 V 2.7 l -0.1,-0.1 V 2.5 l 0.1,-0.1 V 1 h 15.19 v 1.4 l 0.1,0.1 v 0.1 l -0.1,0.1 V 4.1 H 239.4"
         id="path1319" />
      <path
         style="fill:none;stroke:#000000;stroke-width:1"
         d="M 239.4,4.1 V 21.695 H 238 l -0.1,0.1 h -0.1 l -0.1,-0.1 h -1.4 v 14.81 h 1.4 l 0.1,-0.1 h 0.1 l 0.1,0.1 h 1.4 V 54.1"
         id="path1323" />
      <path
         style="fill:none;stroke:#000000;stroke-width:1"
         d="m 239.4,54.1 h -17.605 v 1.4 l 0.1,0.1 v 0.1 l -0.1,0.1 v 1.4 h -15.19 v -1.4 l -0.1,-0.1 v -0.1 l 0.1,-0.1 v -1.4 h -17.51 v 1.4 l 0.1,0.1 v 0.1 l -0.1,0.1 v 1.4 h -15.19 v -1.4 l -0.1,-0.1 v -0.1 l 0.1,-0.1 v -1.4 h -17.51 v 1.4 l 0.1,0.1 v 0.1 l -0.1,0.1 v 1.4 h -15.19 v -1.4 l -0.1,-0.1 v -0.1 l 0.1,-0.1 v -1.4 h -17.51 v 1.4 l 0.1,0.1 v 0.1 l -0.1,0.1 v 1.4 h -15.19 v -1.4 l -0.1,-0.1 v -0.1 l 0.1,-0.1 v -1.4 h -17.51 v 1.4 l 0.1,0.1 v 0.1 l -0.1,0.1 v 1.4 h -15.19 v -1.4 l -0.1,-0.1 v -0.1 l 0.1,-0.1 V 54.1 H 58.2"
         id="path1325" />
      <path
         style="fill:none;stroke:#000000;stroke-width:1"
         d="M 58.2,54.1 V 36.505 h 1.4 l 0.1,-0.1 h 0.1 l 0.1,0.1 h 1.4 v -14.81 h -1.4 l -0.1,0.1 h -0.1 l -0.1,-0.1 H 58.2 V 4.1"
         id="path1327" />
    </g>
    <g
       id="g940"
       transform="matrix(0.4434417,0,0,0.4434417,116.32546,-33.540267)">
      <path
         id="path901"
         style="fill:#000000;stroke-width:0.377953;stroke-linejoin:round"
         inkscape:transform-center-y="-3.2058249e-06"
         d="M 416.16797,839.88086 397.125,866.81055 a 84.647664,78.957063 0 0 0 -5.18555,-0.14844 84.647664,78.957063 0 0 0 -5.49804,0.16601 l -19.14649,-26.8496 a 108.47707,108.47707 0 0 0 -32.99219,13.74218 l 5.14063,29.95899 a 84.647664,78.957063 0 0 0 -10.78516,9.49804 l -28.84375,-4.83203 a 108.47707,108.47707 0 0 0 -13.61133,33.04688 l 21.63086,15.29687 a 84.647664,78.957063 0 0 0 -0.54296,8.92969 84.647664,78.957063 0 0 0 0.58398,9.25781 l -21.57617,15.38672 a 108.47707,108.47707 0 0 0 13.74219,32.99023 l 28.85351,-4.94921 a 84.647664,78.957063 0 0 0 10.79688,9.43551 l -5.02539,30.002 a 108.47707,108.47707 0 0 0 33.04492,13.6133 l 19.04297,-26.9297 a 84.647664,78.957063 0 0 0 5.18554,0.1504 84.647664,78.957063 0 0 0 5.49805,-0.168 l 19.14648,26.8496 a 108.47707,108.47707 0 0 0 32.99024,-13.7402 l -5.13867,-29.961 a 84.647664,78.957063 0 0 0 10.78515,-9.49801 l 28.84375,4.83201 a 108.47707,108.47707 0 0 0 13.08789,-30.86521 H 374.26172 c -3.41237,0 -6.1582,-2.74781 -6.1582,-6.16016 v -40.49414 c 0,-3.41238 2.74583,-6.16015 6.1582,-6.16015 h 122.89062 a 108.47707,108.47707 0 0 0 -13.31445,-31.22852 l -28.85351,4.95117 a 84.647664,78.957063 0 0 0 -10.79688,-9.43554 l 5.02539,-30.00391 a 108.47707,108.47707 0 0 0 -33.04492,-13.61328 z"
         transform="scale(0.26458333)" />
      <text
         xml:space="preserve"
         style="font-style:normal;font-weight:normal;font-size:14.1111px;line-height:7.95;font-family:sans-serif;fill:#000000;fill-opacity:1;stroke:none;stroke-width:0.264583"
         x="99.183899"
         y="254.80435"
         id="text935"><tspan
           sodipodi:role="line"
           id="tspan933"
           x="99.183899"
           y="254.80435"
           style="font-style:normal;font-variant:normal;font-weight:normal;font-stretch:normal;font-size:14.1111px;font-family:Stencil;-inkscape-font-specification:Stencil;stroke-width:0.264583">Bjartur</tspan></text>
    </g>
  </g>
</svg>
